<?xml version="1.0" encoding="utf-8"?>
<!-- Generator: Adobe Illustrator 22.1.0, SVG Export Plug-In . SVG Version: 6.00 Build 0)  -->
<svg version="1.1" id="Layer_1" xmlns="http://www.w3.org/2000/svg" xmlns:xlink="http://www.w3.org/1999/xlink" x="0px" y="0px"
	 viewBox="0 0 100 100" style="enable-background:new 0 0 100 100;" xml:space="preserve">
<style type="text/css">
	.st0{fill:#222221;}
</style>
<path class="st0" d="M50.7,0.7L44,7.4L7.3,44.1l-6.7,6.7l6.7,6.7v0L44,94.1h0l6.7,6.7l6.7-6.7h0L94,57.4l6.7-6.7L50.7,0.7z
	 M69.3,41.2c0.6,13.5-9.4,28.5-27.3,28.5c-5.4,0-10.4-1.6-14.7-4.3c5.1,0.6,10.2-0.8,14.2-4c-4.2-0.1-7.7-2.8-9-6.6
	c1.5,0.3,3,0.2,4.3-0.2c-4.6-0.9-7.8-5.1-7.7-9.5c1.3,0.7,2.8,1.2,4.4,1.2c-4.3-2.9-5.5-8.5-3-12.8c4.7,5.8,11.8,9.6,19.7,10
	c-1.4-6,3.2-11.8,9.4-11.8c2.7,0,5.2,1.2,7,3c2.2-0.4,4.2-1.2,6.1-2.3c-0.7,2.2-2.2,4.1-4.2,5.3c1.9-0.2,3.8-0.7,5.5-1.5
	C72.8,38.1,71.1,39.8,69.3,41.2z"/>
</svg>
